<?xml version="1.0" encoding="UTF-8" standalone="no"?>
<!DOCTYPE svg PUBLIC "-//W3C//DTD SVG 1.1//EN"
 "http://www.w3.org/Graphics/SVG/1.1/DTD/svg11.dtd">
<!-- Generated by graphviz version 12.2.1 (0)
 -->
<!-- Pages: 1 -->
<svg width="759pt" height="160pt"
 viewBox="0.00 0.00 759.29 159.50" xmlns="http://www.w3.org/2000/svg" xmlns:xlink="http://www.w3.org/1999/xlink">
<g id="graph0" class="graph" transform="scale(1 1) rotate(0) translate(4 155.5)">
<polygon fill="white" stroke="none" points="-4,4 -4,-155.5 755.29,-155.5 755.29,4 -4,4"/>
<!-- home -->
<g id="node1" class="node">
<title>home</title>
<ellipse fill="none" stroke="black" cx="27" cy="-86" rx="27" ry="18"/>
<text text-anchor="middle" x="27" y="-80.95" font-family="Times,serif" font-size="14.00">дом</text>
</g>
<!-- 2 -->
<g id="node3" class="node">
<title>2</title>
<ellipse fill="none" stroke="black" cx="141" cy="-86" rx="27" ry="18"/>
<text text-anchor="middle" x="141" y="-80.95" font-family="Times,serif" font-size="14.00">2</text>
</g>
<!-- home&#45;&gt;2 -->
<g id="edge1" class="edge">
<title>home&#45;&gt;2</title>
<path fill="none" stroke="black" d="M54.26,-86C68.48,-86 86.3,-86 102.01,-86"/>
<polygon fill="black" stroke="black" points="102,-89.5 112,-86 102,-82.5 102,-89.5"/>
<text text-anchor="middle" x="84" y="-89.2" font-family="Times,serif" font-size="14.00">0.15</text>
</g>
<!-- rfict -->
<g id="node2" class="node">
<title>rfict</title>
<ellipse fill="none" stroke="black" cx="714.27" cy="-45" rx="37.02" ry="18"/>
<text text-anchor="middle" x="714.27" y="-39.95" font-family="Times,serif" font-size="14.00">работа</text>
</g>
<!-- 7 -->
<g id="node4" class="node">
<title>7</title>
<ellipse fill="none" stroke="black" cx="362.25" cy="-62" rx="27" ry="18"/>
<text text-anchor="middle" x="362.25" y="-56.95" font-family="Times,serif" font-size="14.00">7</text>
</g>
<!-- 2&#45;&gt;7 -->
<g id="edge2" class="edge">
<title>2&#45;&gt;7</title>
<path fill="none" stroke="black" d="M168.18,-83.96C202.49,-81.18 264.49,-75.75 317.25,-69 319.59,-68.7 321.99,-68.37 324.41,-68.03"/>
<polygon fill="black" stroke="black" points="324.83,-71.51 334.2,-66.56 323.79,-64.58 324.83,-71.51"/>
<text text-anchor="middle" x="255" y="-81.76" font-family="Times,serif" font-size="14.00">0.95</text>
</g>
<!-- 3 -->
<g id="node5" class="node">
<title>3</title>
<ellipse fill="none" stroke="black" cx="255" cy="-32" rx="27" ry="18"/>
<text text-anchor="middle" x="255" y="-26.95" font-family="Times,serif" font-size="14.00">3</text>
</g>
<!-- 2&#45;&gt;3 -->
<g id="edge4" class="edge">
<title>2&#45;&gt;3</title>
<path fill="none" stroke="black" d="M159.29,-72.38C167.13,-66.64 176.72,-60.21 186,-55.5 196.25,-50.3 207.92,-45.8 218.66,-42.17"/>
<polygon fill="black" stroke="black" points="219.53,-45.57 227.98,-39.18 217.39,-38.9 219.53,-45.57"/>
<text text-anchor="middle" x="198" y="-58.7" font-family="Times,serif" font-size="14.00">0.84</text>
</g>
<!-- 5 -->
<g id="node6" class="node">
<title>5</title>
<ellipse fill="none" stroke="black" cx="590.25" cy="-81" rx="27" ry="18"/>
<text text-anchor="middle" x="590.25" y="-75.95" font-family="Times,serif" font-size="14.00">5</text>
</g>
<!-- 2&#45;&gt;5 -->
<g id="edge8" class="edge">
<title>2&#45;&gt;5</title>
<path fill="none" stroke="black" d="M159.96,-99.39C181.25,-113.9 218.34,-135 254,-135 254,-135 254,-135 477.25,-135 509.26,-135 541.77,-116.88 563.45,-101.63"/>
<polygon fill="black" stroke="black" points="565.41,-104.54 571.4,-95.8 561.26,-98.9 565.41,-104.54"/>
<text text-anchor="middle" x="362.25" y="-138.2" font-family="Times,serif" font-size="14.00">0.56</text>
</g>
<!-- 4 -->
<g id="node7" class="node">
<title>4</title>
<ellipse fill="none" stroke="black" cx="476.25" cy="-36" rx="27" ry="18"/>
<text text-anchor="middle" x="476.25" y="-30.95" font-family="Times,serif" font-size="14.00">4</text>
</g>
<!-- 7&#45;&gt;4 -->
<g id="edge12" class="edge">
<title>7&#45;&gt;4</title>
<path fill="none" stroke="black" d="M388.11,-56.23C403.19,-52.73 422.68,-48.2 439.41,-44.32"/>
<polygon fill="black" stroke="black" points="440.04,-47.77 448.99,-42.1 438.46,-40.95 440.04,-47.77"/>
<text text-anchor="middle" x="419.25" y="-54.53" font-family="Times,serif" font-size="14.00">0.05</text>
</g>
<!-- 3&#45;&gt;7 -->
<g id="edge3" class="edge">
<title>3&#45;&gt;7</title>
<path fill="none" stroke="black" d="M280.41,-38.96C293.96,-42.82 311.05,-47.69 326.03,-51.96"/>
<polygon fill="black" stroke="black" points="324.94,-55.29 335.52,-54.66 326.86,-48.56 324.94,-55.29"/>
<text text-anchor="middle" x="308.62" y="-52" font-family="Times,serif" font-size="14.00">0.4</text>
</g>
<!-- 6 -->
<g id="node8" class="node">
<title>6</title>
<ellipse fill="none" stroke="black" cx="590.25" cy="-18" rx="27" ry="18"/>
<text text-anchor="middle" x="590.25" y="-12.95" font-family="Times,serif" font-size="14.00">6</text>
</g>
<!-- 3&#45;&gt;6 -->
<g id="edge10" class="edge">
<title>3&#45;&gt;6</title>
<path fill="none" stroke="black" d="M281.57,-27.24C326.39,-19.44 422.08,-5.14 503.25,-9 519.38,-9.77 537.14,-11.48 552.31,-13.21"/>
<polygon fill="black" stroke="black" points="551.5,-16.63 561.84,-14.34 552.32,-9.68 551.5,-16.63"/>
<text text-anchor="middle" x="419.25" y="-14.24" font-family="Times,serif" font-size="14.00">0.22</text>
</g>
<!-- 5&#45;&gt;rfict -->
<g id="edge9" class="edge">
<title>5&#45;&gt;rfict</title>
<path fill="none" stroke="black" d="M615.36,-73.89C631.31,-69.18 652.65,-62.89 671.33,-57.37"/>
<polygon fill="black" stroke="black" points="672.21,-60.76 680.81,-54.58 670.22,-54.05 672.21,-60.76"/>
<text text-anchor="middle" x="647.25" y="-70.48" font-family="Times,serif" font-size="14.00">0.88</text>
</g>
<!-- 5&#45;&gt;7 -->
<g id="edge5" class="edge">
<title>5&#45;&gt;7</title>
<path fill="none" stroke="black" d="M562.9,-81.13C527.38,-80.98 462.25,-79.55 407.25,-72 404.57,-71.63 401.8,-71.18 399.03,-70.67"/>
<polygon fill="black" stroke="black" points="399.76,-67.25 389.26,-68.67 398.36,-74.11 399.76,-67.25"/>
<text text-anchor="middle" x="476.25" y="-82.92" font-family="Times,serif" font-size="14.00">0.32</text>
</g>
<!-- 4&#45;&gt;5 -->
<g id="edge6" class="edge">
<title>4&#45;&gt;5</title>
<path fill="none" stroke="black" d="M501.12,-43.46C514.28,-47.77 530.83,-53.51 545.25,-59.5 549.46,-61.25 553.83,-63.21 558.12,-65.21"/>
<polygon fill="black" stroke="black" points="556.56,-68.34 567.09,-69.53 559.6,-62.04 556.56,-68.34"/>
<text text-anchor="middle" x="533.25" y="-62.7" font-family="Times,serif" font-size="14.00">0.78</text>
</g>
<!-- 4&#45;&gt;6 -->
<g id="edge7" class="edge">
<title>4&#45;&gt;6</title>
<path fill="none" stroke="black" d="M499.21,-26.11C506.12,-23.45 513.88,-20.92 521.25,-19.5 531,-17.62 541.68,-16.81 551.63,-16.58"/>
<polygon fill="black" stroke="black" points="551.38,-20.08 561.36,-16.54 551.35,-13.08 551.38,-20.08"/>
<text text-anchor="middle" x="533.25" y="-22.7" font-family="Times,serif" font-size="14.00">0.9</text>
</g>
<!-- 6&#45;&gt;rfict -->
<g id="edge11" class="edge">
<title>6&#45;&gt;rfict</title>
<path fill="none" stroke="black" d="M616.89,-21.64C629.69,-23.64 645.36,-26.34 659.25,-29.5 663.24,-30.41 667.38,-31.43 671.5,-32.52"/>
<polygon fill="black" stroke="black" points="670.26,-35.8 680.83,-35.07 672.11,-29.05 670.26,-35.8"/>
<text text-anchor="middle" x="647.25" y="-32.7" font-family="Times,serif" font-size="14.00">0.65</text>
</g>
</g>
</svg>
